<svg xmlns="http://www.w3.org/2000/svg" viewBox="0 0 200 200">
  <defs>
    <linearGradient id="bgGrad" x1="0%" y1="0%" x2="100%" y2="100%">
      <stop offset="0%" style="stop-color:#0B2C5D;stop-opacity:1" />
      <stop offset="100%" style="stop-color:#1a4a8a;stop-opacity:1" />
    </linearGradient>
    <linearGradient id="goldGrad" x1="0%" y1="0%" x2="100%" y2="100%">
      <stop offset="0%" style="stop-color:#D4AF37;stop-opacity:1" />
      <stop offset="100%" style="stop-color:#e5c85c;stop-opacity:1" />
    </linearGradient>
  </defs>
  
  <!-- Outer circle -->
  <circle cx="100" cy="100" r="95" fill="url(#bgGrad)" stroke="url(#goldGrad)" stroke-width="3"/>
  
  <!-- Inner decorative ring -->
  <circle cx="100" cy="100" r="78" fill="none" stroke="url(#goldGrad)" stroke-width="1" opacity="0.5"/>
  
  <!-- Letter B - stylized -->
  <g transform="translate(100, 100)">
    <!-- Main B shape -->
    <path 
      d="M-25 -40 L-25 40 L10 40 
         C30 40 40 30 40 15 
         C40 5 32 -3 20 -5 
         C30 -8 35 -18 35 -25 
         C35 -38 25 -40 10 -40 Z
         M-10 -28 L5 -28 C15 -28 20 -24 20 -18 C20 -12 15 -8 5 -8 L-10 -8 Z
         M-10 5 L8 5 C20 5 25 10 25 18 C25 26 20 28 8 28 L-10 28 Z" 
      fill="url(#goldGrad)"
    />
  </g>
  
  <!-- Decorative dots -->
  <circle cx="100" cy="168" r="4" fill="url(#goldGrad)"/>
  <circle cx="115" cy="166" r="2.5" fill="url(#goldGrad)" opacity="0.7"/>
  <circle cx="85" cy="166" r="2.5" fill="url(#goldGrad)" opacity="0.7"/>
</svg>
